<svg width="45" height="44" viewBox="0 0 45 44" fill="none" xmlns="http://www.w3.org/2000/svg">
<g clip-path="url(#clip0_1_30)">
<path d="M15.1272 14.927C15.0857 16.3388 15.4352 17.7345 16.1371 18.9602C16.7299 19.9843 17.5184 20.8817 18.4576 21.6015C17.8417 22.9177 16.831 24.0092 15.5659 24.7243L12.3396 26.558C12.2195 26.626 12.1146 26.7179 12.0315 26.828C11.9484 26.9382 11.8888 27.0643 11.8565 27.1985C11.8241 27.3326 11.8197 27.472 11.8435 27.6079C11.8673 27.7439 11.9188 27.8735 11.9948 27.9887C12.1423 28.2025 12.3651 28.3527 12.6186 28.4091C12.8722 28.4656 13.1377 28.424 13.3619 28.2929L14.7229 27.5194L21.3494 29.3431C21.4721 30.1044 21.7271 30.8383 22.1028 31.5116C22.625 32.4358 23.3923 33.1978 24.3199 33.7138C27.1233 35.2744 31.1862 34.6631 35.1838 32.0624C35.3908 31.9282 35.5413 31.7227 35.6068 31.4848C35.6722 31.2469 35.6481 30.9933 35.5389 30.7721C33.4305 26.4947 30.257 23.8881 27.0523 23.7989C25.7954 23.7626 24.5609 24.1365 23.5354 24.8642C23.455 24.9189 23.3922 24.9957 23.3545 25.0854C23.3168 25.175 23.3059 25.2737 23.3231 25.3694C23.3403 25.4651 23.3849 25.5538 23.4514 25.6247C23.5179 25.6956 23.6036 25.7458 23.698 25.7691L27.0909 26.6198C27.3421 26.6959 27.5537 26.8671 27.6805 27.097C27.8073 27.3269 27.8393 27.5972 27.7696 27.8504C27.6999 28.1035 27.5342 28.3194 27.3076 28.452C27.081 28.5846 26.8116 28.6235 26.5568 28.5604L17.162 26.1012C17.2436 26.0462 17.3246 25.99 17.4038 25.9334C18.9178 24.8197 20.0266 23.2421 20.5618 21.4405L23.2648 12.5816C23.3355 12.3241 23.5056 12.1053 23.7377 11.9732C23.9698 11.8412 24.2449 11.8067 24.5024 11.8775C24.7598 11.9482 24.9787 12.1183 25.1107 12.3504C25.2428 12.5825 25.2772 12.8576 25.2065 13.115L22.5841 21.698C22.5577 21.784 22.5549 21.8754 22.5759 21.9628C22.5968 22.0503 22.6408 22.1305 22.7033 22.1951C22.7658 22.2598 22.8444 22.3066 22.9311 22.3306C23.0177 22.3545 23.1092 22.3549 23.196 22.3315C25.4031 21.7632 27.1768 20.4526 28.2485 18.5335C30.3632 14.7465 29.5053 9.21851 25.9543 3.74485C25.8201 3.53784 25.6145 3.38731 25.3766 3.32185C25.1388 3.25639 24.8852 3.28054 24.6639 3.38974C18.8136 6.28063 15.248 10.5912 15.1272 14.927Z" fill="#1A8500"/>
</g>
<defs>
<clipPath id="clip0_1_30">
<rect width="32.2148" height="32.2148" fill="white" transform="matrix(-0.49413 -0.869388 -0.869388 0.49413 44.4272 28.0058)"/>
</clipPath>
</defs>
</svg>
